<?xml version="1.0" standalone="no"?>
<!DOCTYPE svg PUBLIC "-//W3C//DTD SVG 20010904//EN"
 "http://www.w3.org/TR/2001/REC-SVG-20010904/DTD/svg10.dtd">
<svg version="1.0" xmlns="http://www.w3.org/2000/svg"
 width="800.000000pt" height="800.000000pt" viewBox="0 0 800.000000 800.000000"
 preserveAspectRatio="xMidYMid meet">
<metadata>
Created by potrace 1.11, written by Peter Selinger 2001-2013
</metadata>
<g transform="translate(0.000000,800.000000) scale(0.100000,-0.100000)"
fill="#000000" stroke="none">
<path d="M3890 7526 c-338 -175 -804 -459 -1025 -625 -177 -133 -251 -214
-324 -359 -38 -75 -87 -222 -96 -288 -3 -26 -8 -51 -10 -54 -2 -4 -7 -36 -10
-71 -4 -35 -8 -75 -10 -89 -3 -14 -5 -83 -6 -155 -2 -279 64 -402 326 -612
205 -163 370 -265 648 -397 103 -49 187 -92 187 -96 0 -3 -24 -18 -52 -33 -29
-15 -89 -47 -133 -72 -44 -25 -96 -53 -115 -63 -19 -9 -37 -20 -40 -23 -3 -3
-32 -20 -65 -39 -120 -67 -346 -221 -408 -280 -35 -32 -77 -79 -93 -102 -16
-24 -32 -45 -35 -48 -21 -17 -94 -197 -118 -293 -37 -142 -46 -224 -44 -406
l1 -144 -27 -22 c-76 -64 -111 -209 -76 -310 10 -28 19 -78 21 -112 3 -67 21
-118 61 -176 54 -78 33 -271 -46 -423 -39 -75 -45 -168 -17 -248 8 -23 17 -71
20 -108 8 -104 58 -186 138 -225 62 -31 97 -39 148 -37 43 2 110 -14 110 -26
0 -3 -27 -32 -61 -65 -66 -66 -114 -133 -161 -227 -27 -55 -73 -176 -83 -218
-51 -223 -65 -361 -56 -564 2 -44 16 -21 35 53 43 171 186 368 411 568 88 77
238 192 245 188 3 -2 23 -38 45 -81 21 -42 53 -90 69 -107 45 -44 122 -77 183
-77 145 0 445 -235 486 -380 43 -149 198 -230 352 -186 45 14 69 29 111 70 64
64 87 129 78 216 -4 30 -5 66 -4 80 11 92 4 177 -18 221 -46 93 -136 156 -240
166 -106 10 -278 114 -382 230 -42 48 -116 171 -108 178 2 2 77 44 167 95
l164 93 61 -32 c34 -17 84 -44 111 -60 53 -30 472 -265 640 -359 129 -72 170
-99 285 -190 277 -219 461 -467 486 -653 6 -47 17 -68 27 -52 23 38 23 390 1
498 -3 11 -9 42 -14 68 -30 153 -114 319 -210 417 -92 95 -347 272 -650 454
-80 48 -152 91 -160 96 -8 6 -39 23 -69 38 l-54 29 59 35 c32 20 102 60 154
88 52 29 111 61 130 72 174 96 538 415 652 572 34 48 72 164 88 271 6 44 13
91 15 105 7 46 17 234 17 335 1 216 -28 352 -107 512 -44 89 -52 111 -44 131
31 80 0 204 -70 284 -57 66 -89 163 -105 313 -2 17 8 50 23 80 23 44 26 64 29
170 7 239 -7 200 110 310 56 54 113 116 126 139 25 43 60 145 70 206 3 19 8
46 11 60 24 125 24 470 0 605 -45 244 -136 399 -317 537 -131 99 -301 208
-318 203 -13 -4 -126 -24 -225 -41 -16 -2 -57 -9 -90 -15 -33 -6 -73 -13 -90
-15 -16 -3 -52 -9 -80 -14 -27 -6 -62 -11 -77 -12 -16 -1 -28 -3 -28 -5 0 -3
128 -78 185 -109 72 -39 140 -77 150 -84 6 -4 42 -24 80 -45 119 -64 180 -99
185 -104 3 -4 28 -21 55 -40 209 -144 406 -351 484 -507 38 -77 40 -72 -65
-179 -120 -121 -469 -415 -494 -415 -18 0 -131 86 -191 145 -84 82 -142 166
-145 208 -10 128 -68 217 -173 266 -45 20 -73 26 -142 27 -131 2 -259 52 -395
155 -88 65 -105 83 -133 142 -69 143 -230 205 -382 148 -65 -25 -138 -95 -164
-157 -23 -55 -27 -150 -8 -199 8 -22 17 -71 19 -108 6 -119 64 -211 162 -258
36 -17 68 -23 132 -24 200 -5 441 -144 546 -317 59 -97 153 -158 244 -158 27
0 95 -39 163 -92 37 -29 37 -31 18 -44 -53 -38 -504 -264 -525 -264 -36 0
-711 351 -986 513 -144 84 -165 101 -286 222 -131 131 -215 231 -228 272 -17
52 191 288 399 454 113 90 155 117 451 284 l281 158 93 221 c51 122 102 241
113 266 43 98 57 133 54 136 -1 2 -14 -2 -27 -10z m910 -2615 c0 -5 21 -32 46
-60 61 -68 95 -161 87 -240 -3 -31 -6 -57 -8 -59 -2 -2 -25 9 -52 24 -77 43
-140 77 -258 139 -60 31 -112 59 -114 60 -4 5 271 144 287 144 6 1 12 -3 12
-8z m-504 -484 c137 -68 293 -145 347 -172 53 -26 97 -50 97 -53 0 -16 -114
-96 -194 -135 -44 -22 -84 -32 -143 -38 -129 -12 -225 -67 -270 -154 -20 -38
-48 -64 -121 -113 -162 -109 -272 -141 -462 -133 -31 1 -75 -4 -98 -12 -55
-19 -124 -73 -153 -118 -38 -63 -203 -151 -340 -183 -135 -31 -268 -9 -316 52
-13 17 -39 63 -59 102 -34 70 -35 72 -18 98 104 162 285 331 527 492 53 35
923 484 948 489 3 0 118 -55 255 -122z m1046 -634 c76 -80 139 -164 169 -226
l28 -59 -27 -42 c-72 -112 -167 -232 -266 -336 -79 -82 -96 -97 -220 -181 -55
-38 -106 -72 -112 -76 -5 -5 -19 -13 -30 -20 -10 -6 -84 -52 -164 -101 -141
-87 -467 -276 -620 -360 l-75 -40 -40 23 c-414 238 -760 443 -794 472 -10 7
11 16 71 28 94 20 130 20 163 3 66 -34 146 -39 228 -12 52 17 140 96 152 136
12 38 97 106 205 165 127 68 272 109 332 92 86 -23 210 20 273 94 19 22 45 67
57 100 38 104 193 243 362 323 56 27 88 35 143 38 39 2 79 8 89 14 27 16 25
17 76 -35z m-2387 -1302 c129 -104 288 -207 455 -296 154 -82 173 -95 153
-102 -7 -2 -28 -15 -48 -28 -19 -13 -54 -35 -77 -48 -24 -13 -80 -47 -125 -76
-91 -58 -88 -58 -168 2 -107 81 -183 170 -197 229 -5 22 -24 64 -43 92 -48 73
-73 183 -66 295 1 17 4 21 14 13 6 -5 53 -42 102 -81z"/>
</g>
</svg>
